<?xml version="1.0" encoding="utf-8"?>
<!-- Generator: Adobe Illustrator 24.1.1, SVG Export Plug-In . SVG Version: 6.00 Build 0)  -->
<svg version="1.1" id="Layer_1" xmlns="http://www.w3.org/2000/svg" xmlns:xlink="http://www.w3.org/1999/xlink" x="0px" y="0px"
	 viewBox="0 0 1280 1024" style="enable-background:new 0 0 1280 1024;" xml:space="preserve">
<style type="text/css">
	.st0{fill:#6E6F72;}
	.st1{fill:#BD2327;}
	.st2{fill:#6E6F71;}
</style>
<g>
	<path class="st0" d="M684.21,798.79c-2.97,0-5.94-0.74-8.92-0.74c2.97,36.41,11.89,65.38,16.35,78.01
		c1.49,3.71,2.23,5.95,2.23,5.95s0.75-2.23,2.23-5.95c4.46-11.88,13.38-41.6,16.35-78.01c-5.94,0.74-11.88,1.49-18.57,1.49
		C690.9,799.53,687.18,799.53,684.21,798.79"/>
	<path class="st1" d="M454.63,590.01v-0.74c0-1.49,0.74-2.23,2.23-2.97h0.74c1.49,0,2.23,0.74,2.97,2.23
		c28.97,95.1,121.84,154.54,226.61,154.54c26,0,52.75-3.71,78.75-11.14h0.74c1.49,0,2.23,0.74,2.97,2.23l8.17,26v0.74
		c0,0.74,0,0.74-0.74,1.49s-0.74,1.49-1.49,1.49c-24.52,6.69-49.03,10.4-72.81,10.4C591.34,773.53,488.81,701.46,454.63,590.01"/>
	<path class="st0" d="M820.92,512.74h49.78c7.43,0,10.4-5.2,10.4-11.14v-3.71c0-6.69-3.71-11.14-13.37-11.14h-46.81V512.74z
		 M788.97,460.73h86.92c30.47,0,37.9,15.6,37.9,35.66v8.91c0,15.6-6.69,33.43-28.98,33.43h-63.15v26h-32.69V460.73z"/>
	<path class="st0" d="M685.7,523.89h40.86l-20.8-39.38L685.7,523.89z M684.95,460.73h41.6l57.21,104.02h-35.66l-9.66-18.57h-64.63
		l-9.66,18.57h-35.66L684.95,460.73z"/>
	<polygon class="st0" points="452.41,460.73 501.44,460.73 537.85,527.6 573.51,460.73 622.54,460.73 622.54,564.75 591.34,564.75 
		591.34,489.71 549.73,564.75 525.96,564.75 483.61,489.71 483.61,564.75 452.41,564.75 	"/>
	<polygon class="st2" points="266.66,460.73 315.7,460.73 351.36,527.6 387.77,460.73 436.8,460.73 436.8,564.75 405.59,564.75 
		405.59,489.71 363.25,564.75 339.47,564.75 297.86,489.71 297.12,489.71 297.12,564.75 266.66,564.75 	"/>
	<path class="st0" d="M248.83,564.75h-31.95V496.4h31.95V564.75z M248.83,485.25h-31.95v-25.26h31.95V485.25z"/>
	<path class="st0" d="M980.66,521.66c0,2.97-0.74,5.95-1.49,8.92c36.41-2.97,65.38-11.89,78.01-16.35c3.71-1.48,5.94-2.23,5.94-2.23
		s-2.23-0.74-5.94-2.23c-11.89-3.71-41.6-13.38-78.01-16.35c0.75,5.94,1.49,11.89,1.49,18.57
		C981.4,514.97,981.4,517.94,980.66,521.66"/>
	<path class="st1" d="M952.42,435.47c-0.75-0.74-1.49-0.74-1.49-1.48c-28.98-95.1-121.85-154.54-226.61-154.54
		c-26,0-52.76,3.71-78.76,11.14h-0.74c-1.49,0-2.23-0.74-2.97-2.23l-8.17-26v-0.74v-1.49c0.74-0.74,0.74-1.48,1.49-1.48
		c24.52-7.43,48.29-10.4,72.81-10.4c110.7,0,213.97,72.07,248.15,183.51v0.74v1.49c0,0.74-0.75,1.48-1.49,1.48h-0.75
		C953.17,436.21,952.42,436.21,952.42,435.47"/>
	<path class="st0" d="M703.53,224.47c2.97,0,5.94,0.74,8.91,0.74c-2.97-36.4-11.88-65.38-16.34-78.01c-1.49-2.97-2.23-5.2-2.23-5.2
		s-0.74,2.23-2.23,5.94c-3.71,11.89-13.37,41.61-16.35,78.01c5.95-0.74,11.89-1.49,18.57-1.49H703.53z"/>
</g>
</svg>
